<?xml version="1.0" encoding="utf-8"?>
<!-- Generator: Adobe Illustrator 16.0.0, SVG Export Plug-In . SVG Version: 6.00 Build 0)  -->
<!DOCTYPE svg PUBLIC "-//W3C//DTD SVG 1.1//EN" "http://www.w3.org/Graphics/SVG/1.1/DTD/svg11.dtd">
<svg version="1.1" id="Capa_1" xmlns="http://www.w3.org/2000/svg" xmlns:xlink="http://www.w3.org/1999/xlink" x="0px" y="0px"
	 width="561.333px" height="209.998px" viewBox="0 -37.583 561.333 209.998" enable-background="new 0 -37.583 561.333 209.998"
	 xml:space="preserve">
<g>
	<g>
		<path fill="#FFFFFF" d="M94.34,17.69l-5.127,26.115l-4.486,1.923c-9.132-5.607-18.585-8.972-23.873-8.972
			c-5.127,0-8.011,2.243-8.011,5.287c0,12.016,43.419,11.856,43.419,42.619c0,19.385-16.823,34.926-43.739,34.926
			c-10.895,0-22.431-2.082-34.287-6.088l4.646-27.877l3.204-1.922c10.415,8.01,22.911,12.174,29.801,12.174
			c6.569,0,8.491-2.723,8.491-5.287c0-12.815-43.1-11.533-43.1-42.938c0-20.347,17.465-35.568,42.938-35.568
			C72.711,12.083,83.285,13.525,94.34,17.69z"/>
		<path fill="#FFFFFF" d="M172.687,117.667l-2.884-17.146l-0.161-0.479l-15.701-0.319l-13.138,0.642l-2.724,17.303h-31.403
			L138.08,14.005h38.771l28.358,103.663H172.687z M157.786,42.685h-1.924l-8.972,33.966l8.972,0.16l8.974-0.16L157.786,42.685z"/>
		<path fill="#FFFFFF" d="M257.281,97.798c0,19.707-8.65,29.802-36.049,37.813l-8.332-16.502v-2.563
			c11.057-5.287,14.74-10.414,14.74-19.707V86.744l-1.122-50.147l-13.619,0.48l-1.762-2.083l1.282-20.989h46.303l-1.762,69.537
			L257.281,97.798z"/>
		<path fill="#FFFFFF" d="M370.234,83.06c-0.16,23.551-16.343,36.527-45.342,36.527c-28.038,0-43.419-12.979-42.778-36.527
			l0.48-16.503l-0.961-52.551h32.204l-1.442,64.728c-0.16,10.896,3.845,15.541,13.778,15.541c10.094,0,14.26-4.646,14.1-15.541
			l-1.442-64.728h32.687l-1.121,52.551L370.234,83.06z"/>
		<path fill="#FFFFFF" d="M481.104,117.667l-0.801-31.402l-1.765-26.116h-1.922l-16.663,47.745h-24.19l-13.779-47.745h-1.922
			l-2.243,23.072l-1.603,34.446H389.46l10.094-103.663h37.01l3.044,14.74l9.133,37.651h1.922l10.096-36.529l3.686-15.862h36.529
			l8.331,103.663H481.104z"/>
	</g>
</g>
<rect x="552.334" y="-37.583" fill="#FFFFFF" width="3" height="209.998"/>
</svg>
