<?xml version="1.0" encoding="utf-8"?>
<!-- Generator: Adobe Illustrator 16.0.0, SVG Export Plug-In . SVG Version: 6.00 Build 0)  -->
<!DOCTYPE svg PUBLIC "-//W3C//DTD SVG 1.1//EN" "http://www.w3.org/Graphics/SVG/1.1/DTD/svg11.dtd">
<svg version="1.1" id="Capa_1" xmlns="http://www.w3.org/2000/svg" xmlns:xlink="http://www.w3.org/1999/xlink" x="0px" y="0px"
	 width="527.666px" height="147.167px" viewBox="0 0 527.666 147.167" enable-background="new 0 0 527.666 147.167"
	 xml:space="preserve">
<g>
	<g>
		<path fill="#FFFFFF" d="M94.34,17.69l-5.127,26.115l-4.486,1.923c-9.132-5.607-18.585-8.972-23.873-8.972
			c-5.127,0-8.011,2.243-8.011,5.287c0,12.016,43.419,11.856,43.419,42.618c0,19.386-16.823,34.927-43.739,34.927
			c-10.895,0-22.431-2.082-34.287-6.088l4.646-27.878l3.204-1.922c10.415,8.011,22.911,12.175,29.801,12.175
			c6.569,0,8.491-2.723,8.491-5.287c0-12.816-43.099-11.534-43.099-42.938c0-20.347,17.464-35.568,42.938-35.568
			C72.711,12.083,83.285,13.525,94.34,17.69z"/>
		<path fill="#FFFFFF" d="M172.687,117.667l-2.884-17.145l-0.161-0.48l-15.701-0.319l-13.138,0.641l-2.724,17.304h-31.403
			L138.08,14.005h38.771l28.358,103.662H172.687z M157.786,42.685h-1.923l-8.972,33.966l8.972,0.16l8.973-0.16L157.786,42.685z"/>
		<path fill="#FFFFFF" d="M257.281,97.799c0,19.707-8.651,29.801-36.049,37.812l-8.332-16.502v-2.563
			c11.056-5.287,14.74-10.414,14.74-19.707V86.744l-1.122-50.148l-13.619,0.48l-1.762-2.083l1.282-20.989h46.303L256.96,83.54
			L257.281,97.799z"/>
		<path fill="#FFFFFF" d="M370.234,83.06c-0.16,23.551-16.343,36.528-45.342,36.528c-28.038,0-43.419-12.979-42.778-36.528
			l0.48-16.503l-0.961-52.551h32.204l-1.442,64.728c-0.16,10.896,3.845,15.541,13.778,15.541c10.094,0,14.26-4.646,14.1-15.541
			l-1.442-64.728h32.686l-1.121,52.551L370.234,83.06z"/>
		<path fill="#FFFFFF" d="M481.104,117.667l-0.801-31.402l-1.764-26.116h-1.922l-16.663,47.745h-24.191l-13.779-47.745h-1.922
			l-2.243,23.072l-1.603,34.446H389.46l10.094-103.662h37.01l3.044,14.74l9.133,37.651h1.922l10.095-36.529l3.686-15.862h36.529
			l8.331,103.662H481.104z"/>
	</g>
</g>
</svg>
