<?xml version="1.0" encoding="utf-8"?>
<!-- Generator: Adobe Illustrator 16.0.0, SVG Export Plug-In . SVG Version: 6.00 Build 0)  -->
<!DOCTYPE svg PUBLIC "-//W3C//DTD SVG 1.1//EN" "http://www.w3.org/Graphics/SVG/1.1/DTD/svg11.dtd">
<svg version="1.1" id="Capa_1" xmlns="http://www.w3.org/2000/svg" xmlns:xlink="http://www.w3.org/1999/xlink" x="0px" y="0px"
	 width="527.667px" height="174.665px" viewBox="0 0 527.667 174.665" enable-background="new 0 0 527.667 174.665"
	 xml:space="preserve">
<g>
	<g>
		<path fill="#FFFFFF" d="M94.34,17.69l-5.127,26.115l-4.486,1.923c-9.132-5.607-18.585-8.972-23.873-8.972
			c-5.127,0-8.011,2.243-8.011,5.287c0,12.016,43.419,11.856,43.419,42.618c0,19.387-16.823,34.928-43.739,34.928
			c-10.895,0-22.431-2.083-34.287-6.088l4.646-27.879l3.204-1.922c10.415,8.011,22.911,12.176,29.801,12.176
			c6.569,0,8.491-2.723,8.491-5.287c0-12.817-43.098-11.535-43.098-42.938c0-20.347,17.463-35.568,42.938-35.568
			C72.711,12.083,83.285,13.525,94.34,17.69z"/>
		<path fill="#FFFFFF" d="M172.687,117.666l-2.884-17.144l-0.161-0.48l-15.701-0.32l-13.138,0.641l-2.724,17.304h-31.403
			L138.08,14.005h38.772l28.358,103.661H172.687z M157.786,42.685h-1.922l-8.972,33.966l8.972,0.16l8.972-0.16L157.786,42.685z"/>
		<path fill="#FFFFFF" d="M257.281,97.799c0,19.707-8.652,29.801-36.049,37.812l-8.332-16.502v-2.564
			c11.055-5.287,14.74-10.414,14.74-19.706V86.744l-1.122-50.148l-13.619,0.48l-1.762-2.083l1.282-20.989h46.303L256.96,83.54
			L257.281,97.799z"/>
		<path fill="#FFFFFF" d="M370.234,83.06c-0.16,23.551-16.343,36.529-45.342,36.529c-28.038,0-43.419-12.979-42.778-36.529
			l0.48-16.503l-0.961-52.551h32.204l-1.442,64.728c-0.16,10.895,3.845,15.541,13.778,15.541c10.094,0,14.26-4.646,14.1-15.541
			l-1.442-64.728h32.685l-1.121,52.551L370.234,83.06z"/>
		<path fill="#FFFFFF" d="M481.104,117.666l-0.801-31.402l-1.763-26.116h-1.922l-16.663,47.745h-24.192l-13.779-47.745h-1.922
			l-2.243,23.072l-1.603,34.446H389.46l10.094-103.661h37.01l3.044,14.74l9.133,37.651h1.922l10.094-36.529l3.686-15.862h36.529
			l8.331,103.661H481.104z"/>
	</g>
	<path fill="#FFFFFF" d="M16.473,162.562l1.75-2.007c1.211,1.124,2.836,1.881,4.41,1.881c1.905,0,2.95-0.843,2.95-2.128
		c0-1.355-1.092-1.789-2.629-2.425l-2.313-0.978c-1.667-0.676-3.421-1.961-3.421-4.371c0-2.627,2.381-4.648,5.683-4.648
		c1.978,0,3.893,0.797,5.217,2.102l-1.542,1.855c-1.076-0.893-2.226-1.416-3.675-1.416c-1.604,0-2.65,0.73-2.65,1.936
		c0,1.296,1.289,1.775,2.691,2.334l2.283,0.934c2.013,0.816,3.421,2.057,3.421,4.446c0,2.672-2.277,4.9-6.076,4.9
		C20.282,164.977,18.077,164.099,16.473,162.562z M31.133,148.48c0-0.978,0.787-1.644,1.842-1.644c1.056,0,1.843,0.666,1.843,1.644
		c0,0.958-0.787,1.644-1.843,1.644C31.92,150.124,31.133,149.438,31.133,148.48z M31.475,152.292h2.981v12.382h-2.981V152.292z
		 M36.991,163.252l1.387-1.845c1.128,0.857,2.221,1.381,3.509,1.381c1.387,0,2.039-0.635,2.039-1.482
		c0-1.038-1.376-1.502-2.733-2.006c-1.667-0.61-3.571-1.543-3.571-3.609c0-2.148,1.781-3.701,4.627-3.701
		c1.77,0,3.188,0.701,4.223,1.482l-1.366,1.785c-0.89-0.636-1.786-1.08-2.785-1.08c-1.278,0-1.884,0.596-1.884,1.372
		c0,0.978,1.284,1.351,2.66,1.845c1.718,0.625,3.644,1.432,3.644,3.741c0,2.128-1.729,3.842-4.938,3.842
		C40.065,164.977,38.233,164.251,36.991,163.252z M49.333,160.499v-5.898h-1.812v-2.178l1.967-0.131l0.352-3.378h2.474v3.378h3.24
		v2.309h-3.24v5.895c0,1.456,0.58,2.172,1.801,2.172c0.435,0,0.953-0.141,1.325-0.282l0.507,2.138
		c-0.694,0.223-1.579,0.454-2.599,0.454C50.42,164.977,49.333,163.171,49.333,160.499z M56.976,158.493
		c0-4.023,2.868-6.504,5.859-6.504c3.437,0,5.248,2.42,5.248,5.879c0,0.555-0.062,1.109-0.129,1.411h-8.069
		c0.249,2.198,1.698,3.448,3.747,3.448c1.087,0,2.019-0.332,2.95-0.896l1.015,1.805c-1.211,0.796-2.743,1.341-4.358,1.341
		C59.729,164.977,56.976,162.577,56.976,158.493z M65.505,157.304c0-1.906-0.87-3.066-2.608-3.066c-1.48,0-2.785,1.08-3.043,3.066
		H65.505z M70.932,152.292h2.443l0.228,1.689h0.083c1.076-1.095,2.308-1.992,3.902-1.992c1.863,0,2.924,0.827,3.509,2.219
		c1.216-1.261,2.474-2.219,4.089-2.219c2.681,0,3.923,1.795,3.923,4.921v7.764h-2.981v-7.391c0-2.037-0.621-2.804-1.957-2.804
		c-0.807,0-1.677,0.504-2.66,1.543v8.651H78.53v-7.391c0-2.037-0.621-2.804-1.957-2.804c-0.787,0-1.677,0.504-2.66,1.543v8.651
		h-2.981V152.292z M92.061,161.347c0-2.652,2.257-4.033,7.474-4.578c-0.042-1.33-0.59-2.439-2.309-2.439
		c-1.263,0-2.453,0.555-3.571,1.22l-1.097-1.937c1.397-0.856,3.199-1.623,5.217-1.623c3.178,0,4.741,1.906,4.741,5.354v7.33h-2.443
		l-0.228-1.371h-0.083c-1.139,0.948-2.443,1.674-3.944,1.674C93.593,164.977,92.061,163.505,92.061,161.347z M99.535,161.356v-2.783
		c-3.447,0.424-4.596,1.301-4.596,2.551c0,1.095,0.766,1.574,1.832,1.574C97.806,162.698,98.593,162.204,99.535,161.356z
		 M114.841,148.188h3.52l5.517,16.485H120.7l-1.313-4.467h-5.677l-1.323,4.467h-3.064L114.841,148.188z M118.713,157.913
		l-0.591-2.012c-0.538-1.744-1.035-3.625-1.532-5.435h-0.104c-0.466,1.825-0.963,3.69-1.501,5.435l-0.596,2.012H118.713z
		 M124.931,158.493c0-4.033,2.599-6.504,5.383-6.504c1.439,0,2.35,0.524,3.333,1.361l-0.114-1.996v-4.487h2.981v17.807h-2.443
		l-0.228-1.341h-0.083c-0.942,0.918-2.246,1.644-3.613,1.644C126.98,164.977,124.931,162.577,124.931,158.493z M133.533,161.185
		v-5.768c-0.87-0.756-1.729-1.027-2.588-1.027c-1.615,0-2.95,1.492-2.95,4.073c0,2.692,1.056,4.114,2.888,4.114
		C131.866,162.577,132.694,162.153,133.533,161.185z M140.3,152.292h2.443l0.228,1.689h0.083c1.077-1.095,2.309-1.992,3.903-1.992
		c1.863,0,2.924,0.827,3.509,2.219c1.216-1.261,2.474-2.219,4.089-2.219c2.681,0,3.923,1.795,3.923,4.921v7.764h-2.981v-7.391
		c0-2.037-0.621-2.804-1.957-2.804c-0.808,0-1.677,0.504-2.66,1.543v8.651h-2.981v-7.391c0-2.037-0.621-2.804-1.957-2.804
		c-0.787,0-1.677,0.504-2.66,1.543v8.651H140.3V152.292z M161.77,148.48c0-0.978,0.787-1.644,1.842-1.644
		c1.056,0,1.843,0.666,1.843,1.644c0,0.958-0.787,1.644-1.843,1.644C162.557,150.124,161.77,149.438,161.77,148.48z
		 M162.111,152.292h2.981v12.382h-2.981V152.292z M168.891,152.292h2.443l0.228,1.674h0.083c1.139-1.079,2.433-1.977,4.172-1.977
		c2.722,0,3.913,1.795,3.913,4.921v7.764h-2.981v-7.391c0-2.037-0.601-2.804-1.977-2.804c-1.118,0-1.853,0.535-2.898,1.543v8.651
		h-2.981V152.292z M183.036,148.48c0-0.978,0.787-1.644,1.843-1.644c1.056,0,1.842,0.666,1.842,1.644
		c0,0.958-0.787,1.644-1.842,1.644C183.822,150.124,183.036,149.438,183.036,148.48z M183.377,152.292h2.981v12.382h-2.981V152.292z
		 M188.894,163.252l1.387-1.845c1.128,0.857,2.221,1.381,3.509,1.381c1.387,0,2.04-0.635,2.04-1.482
		c0-1.038-1.377-1.502-2.733-2.006c-1.667-0.61-3.571-1.543-3.571-3.609c0-2.148,1.78-3.701,4.627-3.701
		c1.77,0,3.188,0.701,4.224,1.482l-1.367,1.785c-0.89-0.636-1.785-1.08-2.784-1.08c-1.278,0-1.884,0.596-1.884,1.372
		c0,0.978,1.284,1.351,2.661,1.845c1.718,0.625,3.644,1.432,3.644,3.741c0,2.128-1.729,3.842-4.938,3.842
		C191.968,164.977,190.136,164.251,188.894,163.252z M201.238,160.499v-5.898h-1.812v-2.178l1.967-0.131l0.352-3.378h2.474v3.378
		h3.24v2.309h-3.24v5.895c0,1.456,0.58,2.172,1.801,2.172c0.435,0,0.952-0.141,1.325-0.282l0.507,2.138
		c-0.693,0.223-1.579,0.454-2.598,0.454C202.325,164.977,201.238,163.171,201.238,160.499z M210.133,152.292h2.443l0.228,2.208
		h0.083c0.906-1.613,2.252-2.511,3.613-2.511c0.647,0,1.056,0.081,1.439,0.252l-0.518,2.521c-0.445-0.121-0.776-0.202-1.304-0.202
		c-1.015,0-2.236,0.676-3.002,2.562v7.552h-2.981V152.292z M218.426,161.347c0-2.652,2.257-4.033,7.474-4.578
		c-0.042-1.33-0.59-2.439-2.309-2.439c-1.263,0-2.453,0.555-3.571,1.22l-1.097-1.937c1.397-0.856,3.199-1.623,5.217-1.623
		c3.178,0,4.741,1.906,4.741,5.354v7.33h-2.443l-0.228-1.371h-0.083c-1.139,0.948-2.443,1.674-3.944,1.674
		C219.958,164.977,218.426,163.505,218.426,161.347z M225.9,161.356v-2.783c-3.447,0.424-4.596,1.301-4.596,2.551
		c0,1.095,0.766,1.574,1.832,1.574C224.171,162.698,224.958,162.204,225.9,161.356z M232.494,160.499v-5.898h-1.812v-2.178
		l1.967-0.131l0.352-3.378h2.474v3.378h3.24v2.309h-3.24v5.895c0,1.456,0.58,2.172,1.801,2.172c0.435,0,0.953-0.141,1.325-0.282
		l0.507,2.138c-0.694,0.223-1.579,0.454-2.599,0.454C233.581,164.977,232.494,163.171,232.494,160.499z M241.045,148.48
		c0-0.978,0.787-1.644,1.842-1.644c1.056,0,1.843,0.666,1.843,1.644c0,0.958-0.787,1.644-1.843,1.644
		C241.832,150.124,241.045,149.438,241.045,148.48z M241.386,152.292h2.981v12.382h-2.981V152.292z M246.582,152.292h3.022
		l2.019,6.423c0.352,1.22,0.725,2.49,1.077,3.73h0.104c0.352-1.24,0.725-2.511,1.077-3.73l2.019-6.423h2.878l-4.317,12.382h-3.447
		L246.582,152.292z M259.979,158.493c0-4.124,2.878-6.504,6.045-6.504s6.045,2.38,6.045,6.504c0,4.104-2.878,6.483-6.045,6.483
		S259.979,162.597,259.979,158.493z M269.006,158.493c0-2.48-1.118-4.135-2.981-4.135s-2.981,1.654-2.981,4.135
		s1.118,4.113,2.981,4.113S269.006,160.974,269.006,158.493z M279.268,158.493c0-4.033,2.598-6.504,5.383-6.504
		c1.439,0,2.35,0.524,3.333,1.361l-0.114-1.996v-4.487h2.981v17.807h-2.443l-0.228-1.341h-0.083
		c-0.942,0.918-2.246,1.644-3.612,1.644C281.317,164.977,279.268,162.577,279.268,158.493z M287.87,161.185v-5.768
		c-0.87-0.756-1.729-1.027-2.588-1.027c-1.615,0-2.95,1.492-2.95,4.073c0,2.692,1.056,4.114,2.888,4.114
		C286.204,162.577,287.032,162.153,287.87,161.185z M293.796,158.493c0-4.023,2.867-6.504,5.858-6.504
		c3.438,0,5.249,2.42,5.249,5.879c0,0.555-0.063,1.109-0.13,1.411h-8.069c0.249,2.198,1.698,3.448,3.748,3.448
		c1.087,0,2.019-0.332,2.95-0.896l1.014,1.805c-1.211,0.796-2.742,1.341-4.357,1.341
		C296.549,164.977,293.796,162.577,293.796,158.493z M302.326,157.304c0-1.906-0.87-3.066-2.609-3.066
		c-1.48,0-2.784,1.08-3.043,3.066H302.326z M311.646,162.168l2.07-1.478c0.693,1.221,1.604,1.745,2.639,1.745
		c1.584,0,2.402-0.837,2.402-3.187v-11.061h3.002v11.313c0,3.016-1.521,5.476-5.052,5.476
		C314.338,164.977,312.723,164.028,311.646,162.168z M325.564,160.056v-7.764h2.98v7.391c0,2.037,0.601,2.803,1.978,2.803
		c1.118,0,1.853-0.504,2.815-1.714v-8.479h2.981v12.382h-2.443l-0.228-1.825h-0.083c-1.118,1.291-2.35,2.128-4.089,2.128
		C326.754,164.977,325.564,163.182,325.564,160.056z M338.832,163.252l1.387-1.845c1.129,0.857,2.221,1.381,3.51,1.381
		c1.387,0,2.039-0.635,2.039-1.482c0-1.038-1.377-1.502-2.732-2.006c-1.667-0.61-3.572-1.543-3.572-3.609
		c0-2.148,1.781-3.701,4.627-3.701c1.771,0,3.189,0.701,4.225,1.482l-1.367,1.785c-0.891-0.636-1.785-1.08-2.784-1.08
		c-1.278,0-1.884,0.596-1.884,1.372c0,0.978,1.283,1.351,2.66,1.845c1.719,0.625,3.644,1.432,3.644,3.741
		c0,2.128-1.729,3.842-4.938,3.842C341.906,164.977,340.074,164.251,338.832,163.252z M351.176,160.499v-5.898h-1.811v-2.178
		l1.967-0.131l0.352-3.378h2.475v3.378h3.239v2.309h-3.239v5.895c0,1.456,0.579,2.172,1.801,2.172c0.435,0,0.952-0.141,1.324-0.282
		l0.508,2.138c-0.693,0.223-1.578,0.454-2.598,0.454C352.264,164.977,351.176,163.171,351.176,160.499z M359.728,148.48
		c0-0.978,0.786-1.644,1.843-1.644c1.056,0,1.842,0.666,1.842,1.644c0,0.958-0.786,1.644-1.842,1.644
		C360.514,150.124,359.728,149.438,359.728,148.48z M360.069,152.292h2.981v12.382h-2.981V152.292z M366.01,158.493
		c0-4.124,2.992-6.504,6.377-6.504c1.614,0,2.795,0.605,3.716,1.392l-1.449,1.886c-0.673-0.575-1.314-0.908-2.112-0.908
		c-2.049,0-3.467,1.654-3.467,4.135s1.396,4.113,3.374,4.113c0.994,0,1.905-0.474,2.63-1.068l1.211,1.916
		c-1.19,1.028-2.702,1.522-4.151,1.522C368.67,164.977,366.01,162.597,366.01,158.493z M378.461,148.48
		c0-0.978,0.786-1.644,1.842-1.644c1.057,0,1.843,0.666,1.843,1.644c0,0.958-0.786,1.644-1.843,1.644
		C379.247,150.124,378.461,149.438,378.461,148.48z M378.802,152.292h2.981v12.382h-2.981V152.292z M384.897,161.347
		c0-2.652,2.257-4.033,7.474-4.578c-0.041-1.33-0.59-2.439-2.308-2.439c-1.264,0-2.454,0.555-3.571,1.22l-1.098-1.937
		c1.397-0.856,3.198-1.623,5.217-1.623c3.179,0,4.741,1.906,4.741,5.354v7.33h-2.442l-0.229-1.371H392.6
		c-1.139,0.948-2.443,1.674-3.944,1.674C386.43,164.977,384.897,163.505,384.897,161.347z M392.371,161.356v-2.783
		c-3.446,0.424-4.596,1.301-4.596,2.551c0,1.095,0.766,1.574,1.832,1.574C390.643,162.698,391.43,162.204,392.371,161.356z
		 M404.362,148.188h3.396l2.991,8.057c0.373,1.048,0.715,2.157,1.087,3.236h0.104c0.373-1.079,0.694-2.188,1.066-3.236l2.93-8.057
		h3.396v16.485h-2.754v-7.542c0-1.522,0.238-3.716,0.383-5.243h-0.104l-1.366,3.831l-2.784,7.406h-1.78l-2.795-7.406l-1.346-3.831
		h-0.104c0.145,1.527,0.383,3.721,0.383,5.243v7.542h-2.702V148.188z M423.237,160.056v-7.764h2.981v7.391
		c0,2.037,0.601,2.803,1.977,2.803c1.118,0,1.854-0.504,2.816-1.714v-8.479h2.98v12.382h-2.442l-0.228-1.825h-0.083
		c-1.118,1.291-2.35,2.128-4.089,2.128C424.428,164.977,423.237,163.182,423.237,160.056z M437.766,152.292h2.443l0.228,1.674h0.083
		c1.139-1.079,2.433-1.977,4.171-1.977c2.723,0,3.913,1.795,3.913,4.921v7.764h-2.981v-7.391c0-2.037-0.6-2.804-1.977-2.804
		c-1.118,0-1.854,0.535-2.898,1.543v8.651h-2.981V152.292z M451.913,148.48c0-0.978,0.787-1.644,1.843-1.644
		s1.843,0.666,1.843,1.644c0,0.958-0.787,1.644-1.843,1.644S451.913,149.438,451.913,148.48z M452.255,152.292h2.981v12.382h-2.981
		V152.292z M458.195,158.493c0-4.124,2.992-6.504,6.377-6.504c1.615,0,2.795,0.605,3.716,1.392l-1.449,1.886
		c-0.673-0.575-1.314-0.908-2.111-0.908c-2.05,0-3.468,1.654-3.468,4.135s1.397,4.113,3.375,4.113c0.993,0,1.904-0.474,2.629-1.068
		l1.211,1.916c-1.19,1.028-2.701,1.522-4.15,1.522C460.855,164.977,458.195,162.597,458.195,158.493z M470.646,148.48
		c0-0.978,0.786-1.644,1.842-1.644c1.057,0,1.843,0.666,1.843,1.644c0,0.958-0.786,1.644-1.843,1.644
		C471.433,150.124,470.646,149.438,470.646,148.48z M470.988,152.292h2.98v12.382h-2.98V152.292z M477.767,152.292h2.443l0.228,1.32
		h0.083c1.071-0.896,2.433-1.623,3.83-1.623c3.178,0,5,2.48,5,6.302c0,4.235-2.599,6.686-5.425,6.686
		c-1.128,0-2.235-0.494-3.271-1.361l0.093,2.057v3.902h-2.981V152.292z M486.286,158.321c0-2.471-0.828-3.932-2.764-3.932
		c-0.922,0-1.791,0.453-2.774,1.391v5.768c0.911,0.756,1.812,1.029,2.547,1.029C484.992,162.577,486.286,161.124,486.286,158.321z
		 M491.366,161.347c0-2.652,2.256-4.033,7.474-4.578c-0.042-1.33-0.59-2.439-2.309-2.439c-1.263,0-2.453,0.555-3.571,1.22
		l-1.098-1.937c1.397-0.856,3.199-1.623,5.218-1.623c3.178,0,4.741,1.906,4.741,5.354v7.33h-2.443l-0.228-1.371h-0.083
		c-1.139,0.948-2.443,1.674-3.944,1.674C492.897,164.977,491.366,163.505,491.366,161.347z M498.84,161.356v-2.783
		c-3.447,0.424-4.597,1.301-4.597,2.551c0,1.095,0.767,1.574,1.833,1.574C497.111,162.698,497.897,162.204,498.84,161.356z
		 M505.397,161.487v-14.62h2.98v14.771c0,0.716,0.332,0.968,0.643,0.968c0.134,0,0.237,0,0.466-0.05l0.372,2.167
		c-0.362,0.142-0.859,0.253-1.573,0.253C506.174,164.977,505.397,163.646,505.397,161.487z"/>
</g>
</svg>
